<?xml version="1.0" encoding="UTF-8"?>
<svg version="1.1" xmlns="http://www.w3.org/2000/svg" width="920" height="920">
<path d="M0 0 C303.6 0 607.2 0 920 0 C916.27011522 4.35153224 912.74869911 8.3499036 908.6875 12.3125 C905.42613581 15.3504529 905.42613581 15.3504529 903 19 C902.34 19 901.68 19 901 19 C900.75451416 19.57218262 900.50902832 20.14436523 900.25610352 20.73388672 C898.78731217 23.3837062 897.06863952 25.14099283 894.90234375 27.2578125 C893.70061523 28.44310547 893.70061523 28.44310547 892.47460938 29.65234375 C891.63736328 30.46832031 890.80011719 31.28429687 889.9375 32.125 C888.27777378 33.75038706 886.62011253 35.37788627 884.96484375 37.0078125 C884.2287085 37.72598145 883.49257324 38.44415039 882.73413086 39.18408203 C880.92976993 40.89521545 880.92976993 40.89521545 880 43 C879.34 43 878.68 43 878 43 C877.63201294 43.85803223 877.63201294 43.85803223 877.2565918 44.73339844 C875.78524527 47.38736797 874.06447599 49.14499183 871.89453125 51.265625 C871.07533203 52.07386719 870.25613281 52.88210938 869.41210938 53.71484375 C868.55423828 54.55144531 867.69636719 55.38804687 866.8125 56.25 C861.58063268 61.37328899 856.47967349 66.5005517 851.71362305 72.06152344 C848.01305825 76.24765885 843.94774782 80.08956535 839.9609375 84 C836.68299366 87.23997537 833.50864439 90.50697069 830.5 94 C826.24967188 98.93462131 821.60741662 103.44253389 816.9609375 108 C813.04874302 111.86687948 809.36117419 115.83741058 805.77246094 120.00488281 C802.71234372 123.44941145 799.41405595 126.65094516 796.125 129.875 C794.7919881 131.18257274 793.46114384 132.49236015 792.1328125 133.8046875 C791.26487061 134.65522705 791.26487061 134.65522705 790.37939453 135.52294922 C788.89627065 136.97110166 788.89627065 136.97110166 788 139 C787.34 139 786.68 139 786 139 C785.75000244 139.57669434 785.50000488 140.15338867 785.24243164 140.74755859 C783.82852506 143.31087205 782.21487926 144.99597808 780.12109375 147.0390625 C779.36505859 147.78414062 778.60902344 148.52921875 777.83007812 149.296875 C777.04052734 150.06515625 776.25097656 150.8334375 775.4375 151.625 C773.87152109 153.15663169 772.30761061 154.69038195 770.74609375 156.2265625 C770.05185303 156.90283691 769.3576123 157.57911133 768.64233398 158.27587891 C766.92043505 159.91488551 766.92043505 159.91488551 766 162 C765.34 162 764.68 162 764 162 C763.63878052 162.85126465 763.63878052 162.85126465 763.27026367 163.71972656 C761.74374592 166.46000636 759.91799033 168.29039291 757.67578125 170.484375 C756.81146484 171.33773437 755.94714844 172.19109375 755.05664062 173.0703125 C754.15107422 173.95460938 753.24550781 174.83890625 752.3125 175.75 C746.87964782 181.07617072 741.55136728 186.3915312 736.60229492 192.17285156 C733.55112027 195.65220416 730.20484645 198.836634 726.89453125 202.06640625 C724.03169153 204.88765508 721.30612487 207.76199972 718.6875 210.8125 C713.77943663 216.492374 708.37392382 221.67147782 703.02734375 226.93359375 C698.74340274 231.1762769 694.64577937 235.48293204 690.71972656 240.05761719 C687.6821657 243.4884568 684.39597871 246.66866514 681.125 249.875 C679.7919881 251.18257274 678.46114384 252.49236015 677.1328125 253.8046875 C676.26487061 254.65522705 676.26487061 254.65522705 675.37939453 255.52294922 C673.89627065 256.97110166 673.89627065 256.97110166 673 259 C672.34 259 671.68 259 671 259 C670.74549072 259.58120605 670.49098145 260.16241211 670.22875977 260.76123047 C668.86941324 263.23792581 667.36088903 264.85134445 665.33984375 266.8203125 C664.62892578 267.52027344 663.91800781 268.22023438 663.18554688 268.94140625 C662.44369141 269.66199219 661.70183594 270.38257813 660.9375 271.125 C659.46526807 272.56287561 657.99510844 274.00287708 656.52734375 275.4453125 C655.87499756 276.07969238 655.22265137 276.71407227 654.55053711 277.36767578 C652.91114 278.93459167 652.91114 278.93459167 652 281 C651.34 281 650.68 281 650 281 C649.7635376 281.56315918 649.5270752 282.12631836 649.28344727 282.70654297 C647.70392988 285.52906271 645.77564816 287.43189874 643.46484375 289.6953125 C642.12776367 291.01595703 642.12776367 291.01595703 640.76367188 292.36328125 C639.3647168 293.73033203 639.3647168 293.73033203 637.9375 295.125 C636.09027833 296.93789615 634.24511579 298.75289358 632.40234375 300.5703125 C631.58241943 301.37227051 630.76249512 302.17422852 629.91772461 303.00048828 C627.9485366 304.85596361 627.9485366 304.85596361 627 307 C626.34 307 625.68 307 625 307 C624.74549072 307.58120605 624.49098145 308.16241211 624.22875977 308.76123047 C622.86941324 311.23792581 621.36088903 312.85134445 619.33984375 314.8203125 C618.62892578 315.52027344 617.91800781 316.22023438 617.18554688 316.94140625 C616.44369141 317.66199219 615.70183594 318.38257813 614.9375 319.125 C613.46526807 320.56287561 611.99510844 322.00287708 610.52734375 323.4453125 C609.87499756 324.07969238 609.22265137 324.71407227 608.55053711 325.36767578 C606.91114 326.93459167 606.91114 326.93459167 606 329 C605.34 329 604.68 329 604 329 C603.76369873 329.56299805 603.52739746 330.12599609 603.28393555 330.70605469 C601.70192894 333.5325491 599.77135991 335.43604599 597.45703125 337.703125 C596.54759766 338.60160156 595.63816406 339.50007813 594.70117188 340.42578125 C593.73865469 341.36756931 592.77576181 342.30897355 591.8125 343.25 C586.20945965 348.74863588 580.68809651 354.22172391 575.5847168 360.19042969 C572.54148695 363.66545967 569.19874017 366.84259171 565.89453125 370.06640625 C563.00849387 372.91051573 560.26093202 375.81088238 557.6171875 378.8828125 C553.83005264 383.26647886 549.75722834 387.31887163 545.625 391.375 C544.19824009 392.77632747 542.77364493 394.1798635 541.3515625 395.5859375 C540.73104004 396.1948584 540.11051758 396.8037793 539.47119141 397.43115234 C537.90538038 398.95123461 537.90538038 398.95123461 537 401 C536.34 401 535.68 401 535 401 C534.75451416 401.57218262 534.50902832 402.14436523 534.25610352 402.73388672 C532.78731217 405.3837062 531.06863952 407.14099283 528.90234375 409.2578125 C528.10119141 410.04800781 527.30003906 410.83820313 526.47460938 411.65234375 C525.63736328 412.46832031 524.80011719 413.28429687 523.9375 414.125 C522.27777378 415.75038706 520.62011253 417.37788627 518.96484375 419.0078125 C518.2287085 419.72598145 517.49257324 420.44415039 516.73413086 421.18408203 C514.92976993 422.89521545 514.92976993 422.89521545 514 425 C513.34 425 512.68 425 512 425 C511.75016357 425.5765332 511.50032715 426.15306641 511.24291992 426.74707031 C509.82641968 429.31463351 508.21078033 430.99989768 506.11328125 433.046875 C505.33919922 433.81 504.56511719 434.573125 503.76757812 435.359375 C502.95740234 436.14828125 502.14722656 436.9371875 501.3125 437.75 C496.24075 442.7101467 491.2723901 447.66417551 486.69213867 453.08691406 C486.13373291 453.71823242 485.57532715 454.34955078 485 455 C484.30740092 455.85176809 483.61480183 456.70353618 482.9012149 457.58111542 C479.23095185 460.64119301 476.45806434 460.69453433 471.88842297 460.61523914 C471.07223438 460.62100836 470.25604579 460.62677759 469.41512421 460.63272163 C466.66826418 460.64600237 463.92285689 460.62349047 461.17607117 460.60127258 C459.19184822 460.60345216 457.20762667 460.60782859 455.22341281 460.61421841 C449.76177067 460.62542355 444.30061674 460.60536442 438.83903682 460.58032811 C432.95290742 460.55877806 427.06680655 460.56603967 421.1806488 460.56983948 C410.97946819 460.57246391 400.77844721 460.55674843 390.57730675 460.52865028 C379.87761192 460.49919806 369.1779854 460.47982199 358.4782505 460.47438622 C357.81314775 460.47404252 357.14804499 460.47369882 356.46278761 460.47334471 C353.0851109 460.47165306 349.70743414 460.47014613 346.32975731 460.46871033 C322.40135411 460.45820633 298.47303408 460.42451417 274.54467773 460.37719727 C251.29761182 460.33128061 228.05056884 460.2959444 204.8034668 460.2746582 C203.34178855 460.27330499 201.8801103 460.27195147 200.41843206 460.27059764 C189.10181486 460.2601699 177.7851971 460.25041608 166.46857917 460.24082482 C110.97897466 460.19363844 55.48958317 460.09305129 0 460 C0 308.2 0 156.4 0 0 Z " fill="#1875D1" transform="translate(0,230)"/>
<path d="M0 0 C0.79767792 -0.00423477 1.59535583 -0.00846954 2.41720581 -0.01283264 C4.98261872 -0.02266282 7.54785295 -0.02276291 10.11328125 -0.01953125 C10.99015594 -0.018927 11.86703064 -0.01832275 12.77047729 -0.0177002 C25.74457139 0.00663115 38.57459939 0.21438183 51.42578125 2.16796875 C52.34617188 2.30750977 53.2665625 2.44705078 54.21484375 2.59082031 C67.05861283 4.60729206 79.92657009 6.7795181 91.42578125 13.16796875 C89.21182258 21.32902209 86.16068413 29.05137282 82.92578125 36.85546875 C82.43980469 38.03947266 81.95382813 39.22347656 81.453125 40.44335938 C79.15307494 46.03680536 76.83070281 51.61877475 74.42578125 57.16796875 C69.02384484 56.27983607 63.73389603 55.31247956 58.48828125 53.73046875 C44.3063772 49.85368605 30.13412818 48.85558567 15.48828125 48.73046875 C14.7889447 48.71843414 14.08960815 48.70639954 13.36907959 48.69400024 C3.5186035 48.54878758 -9.17700832 48.43083598 -16.76171875 55.73046875 C-20.76959829 61.12037572 -21.30342335 64.55228643 -20.57421875 71.16796875 C-19.22328995 74.09343315 -19.22328995 74.09343315 -17.57421875 76.16796875 C-17.57421875 76.82796875 -17.57421875 77.48796875 -17.57421875 78.16796875 C-16.93484375 78.39484375 -16.29546875 78.62171875 -15.63671875 78.85546875 C-13.19165762 79.90335209 -11.15150883 81.0001613 -8.88671875 82.35546875 C4.40845605 89.79027044 19.17185504 93.65797336 33.80859375 97.47705078 C57.37869646 103.699382 84.29636622 111.76655559 98.48828125 133.35546875 C99.16832933 134.60832655 99.81430911 135.88024988 100.42578125 137.16796875 C101.00585938 138.33005859 101.00585938 138.33005859 101.59765625 139.515625 C103.46122139 143.44059952 104.42578125 145.72627614 104.42578125 150.16796875 C105.08578125 150.16796875 105.74578125 150.16796875 106.42578125 150.16796875 C106.48765625 149.23984375 106.54953125 148.31171875 106.61328125 147.35546875 C107.24534167 142.94860306 109.0914031 139.32908156 110.98828125 135.3359375 C112.8127272 131.31521558 114.32012966 127.20482618 115.84033203 123.0612793 C118.26429781 116.50414109 120.87243741 110.02556576 123.48828125 103.54296875 C126.64000629 95.7256659 129.65543233 87.90336319 132.421875 79.94140625 C133.57000132 76.76953977 134.92664744 73.74163899 136.3359375 70.6796875 C138.9645919 64.62153416 141.13876244 58.36180058 143.42578125 52.16796875 C146.4714812 43.93287203 149.5633725 35.74238771 153 27.66015625 C155.34443147 21.91790492 157.50013305 16.10234627 159.65966797 10.28833008 C159.98854004 9.41200928 160.31741211 8.53568848 160.65625 7.6328125 C160.94910889 6.84511475 161.24196777 6.05741699 161.54370117 5.24584961 C162.42578125 3.16796875 162.42578125 3.16796875 164.42578125 0.16796875 C167.20986938 -0.1927948 167.20986938 -0.1927948 170.80322266 -0.17260742 C171.45700394 -0.1730455 172.11078522 -0.17348358 172.78437805 -0.17393494 C174.949002 -0.17184206 177.11285485 -0.14848905 179.27734375 -0.125 C180.77663754 -0.11940578 182.27593681 -0.11513486 183.77523804 -0.11213684 C187.72423402 -0.10067423 191.67289977 -0.07119525 195.62176514 -0.0380249 C199.65014172 -0.0073543 203.6785716 0.00636203 207.70703125 0.02148438 C215.61343292 0.05367343 223.51956602 0.10488648 231.42578125 0.16796875 C232.06722069 1.43684229 232.70704368 2.70653305 233.34619141 3.9765625 C233.88090561 5.03701782 233.88090561 5.03701782 234.42642212 6.11889648 C235.70935765 8.74940991 236.77337329 11.42821419 237.80078125 14.16796875 C238.22101563 15.27914063 238.64125 16.3903125 239.07421875 17.53515625 C240.02121268 20.08054457 240.96392411 22.62724394 241.90234375 25.17578125 C244.39047199 31.91232433 246.97146437 38.50640692 250.015625 45.015625 C254.81396365 55.74210502 258.94019535 66.78288822 262.99584961 77.80737305 C265.70277194 85.06631499 268.74928958 92.18360348 271.75341797 99.32324219 C274.60938465 106.13585673 277.2578062 112.98258224 279.80078125 119.91796875 C281.85545403 125.39709616 284.15660476 130.77512639 286.42578125 136.16796875 C289.29201524 142.98190437 292.11591025 149.79502239 294.67578125 156.73046875 C297.45981444 164.26001307 300.44434724 171.71438373 303.42578125 179.16796875 C303.75578125 120.09796875 304.08578125 61.02796875 304.42578125 0.16796875 C328.03109375 0.07515625 328.03109375 0.07515625 352.11328125 -0.01953125 C357.05901123 -0.04684326 362.00474121 -0.07415527 367.1003418 -0.10229492 C373.19885254 -0.11584473 373.19885254 -0.11584473 376.06526184 -0.11836243 C378.04221124 -0.12293104 380.01915294 -0.13340197 381.99604797 -0.14875793 C393.2114252 -0.23142493 403.63343059 -0.239609 414.42578125 3.16796875 C415.23168198 3.42153641 416.0375827 3.67510406 416.86790466 3.93635559 C418.8307761 4.58182906 420.75109273 5.29185855 422.67578125 6.04296875 C423.6802832 6.42606201 423.6802832 6.42606201 424.70507812 6.81689453 C429.8660766 8.83408053 434.72642177 11.2178153 439.42578125 14.16796875 C439.42578125 14.82796875 439.42578125 15.48796875 439.42578125 16.16796875 C440.74578125 16.49796875 442.06578125 16.82796875 443.42578125 17.16796875 C443.42578125 17.82796875 443.42578125 18.48796875 443.42578125 19.16796875 C443.97492187 19.39226562 444.5240625 19.6165625 445.08984375 19.84765625 C460.08232562 28.32166774 470.15045125 47.47891709 474.640625 63.4375 C479.61771431 87.08486464 477.23462847 108.9628345 465.42578125 130.16796875 C464.10918827 132.17902835 462.77864469 134.18112746 461.42578125 136.16796875 C460.71421875 137.43640625 460.71421875 137.43640625 459.98828125 138.73046875 C458.12672932 141.63448977 455.94070445 143.84557555 453.42578125 146.16796875 C452.70132813 146.85117187 451.976875 147.534375 451.23046875 148.23828125 C434.19507019 163.99201973 416.16258821 172.01842145 392.89453125 172.484375 C392.11625977 172.50302612 391.33798828 172.52167725 390.53613281 172.54089355 C387.66611624 172.60850075 384.79593771 172.66908669 381.92578125 172.73046875 C372.27328125 172.94703125 372.27328125 172.94703125 362.42578125 173.16796875 C362.09578125 191.97796875 361.76578125 210.78796875 361.42578125 230.16796875 C326.44578125 230.16796875 291.46578125 230.16796875 255.42578125 230.16796875 C253.77578125 224.55796875 252.12578125 218.94796875 250.42578125 213.16796875 C248.41756072 207.53483741 248.41756072 207.53483741 246.34375 201.92578125 C245.42578125 199.16796875 245.42578125 199.16796875 245.42578125 196.16796875 C244.21664063 196.56628906 243.0075 196.96460938 241.76171875 197.375 C212.19685889 207.00938041 181.47345041 209.29528077 152.42578125 196.16796875 C152.22275391 197.11929688 152.22275391 197.11929688 152.015625 198.08984375 C149.53924941 208.82574752 146.36538193 220.2887674 141.42578125 230.16796875 C119.31578125 230.16796875 97.20578125 230.16796875 74.42578125 230.16796875 C77.80078125 218.91796875 77.80078125 218.91796875 80.11328125 213.54296875 C80.55027344 212.51945313 80.98726562 211.4959375 81.4375 210.44140625 C81.76363281 209.69117188 82.08976563 208.9409375 82.42578125 208.16796875 C81.31783203 208.94720703 81.31783203 208.94720703 80.1875 209.7421875 C44.89144196 234.00542435 -2.17934667 234.15522788 -42.98095703 226.72998047 C-50.9809699 225.18605834 -58.66995971 222.95317103 -66.32421875 220.16796875 C-66.98035156 219.93102295 -67.63648437 219.69407715 -68.3125 219.44995117 C-72.31664119 217.91025857 -75.36741551 216.00758078 -78.57421875 213.16796875 C-77.22102446 206.81689177 -75.63288375 200.59091548 -73.82421875 194.35546875 C-73.56688965 193.46126221 -73.30956055 192.56705566 -73.04443359 191.64575195 C-70.29547327 182.13095257 -67.44527379 172.6465228 -64.57421875 163.16796875 C-60.99526024 164.5567152 -57.50083049 166.09654042 -54.00463867 167.6809082 C-39.87939349 174.03466797 -25.76641915 177.29539054 -10.26171875 177.85546875 C-8.75242798 177.91081787 -8.75242798 177.91081787 -7.21264648 177.96728516 C6.59628578 178.40023665 23.44889612 178.31809302 35.42578125 170.16796875 C36.51623743 167.42442741 36.61473465 164.66579299 36.67578125 161.73046875 C36.7015625 160.98925781 36.72734375 160.24804688 36.75390625 159.484375 C36.16886978 155.35429611 34.24835363 152.79711972 30.96923828 150.2890625 C23.60789121 146.03106473 16.51214201 143.311281 8.30078125 141.16796875 C7.09518555 140.83603516 5.88958984 140.50410156 4.64746094 140.16210938 C-1.42211944 138.50029467 -7.51127427 136.92466481 -13.61328125 135.38671875 C-32.23638445 130.65023792 -49.37247208 124.96992714 -62.57421875 110.16796875 C-63.88671875 107.85546875 -63.88671875 107.85546875 -64.57421875 106.16796875 C-65.23421875 106.16796875 -65.89421875 106.16796875 -66.57421875 106.16796875 C-77.91435295 91.43577094 -79.62936762 74.05054385 -78.57421875 56.16796875 C-77.52298254 48.86342302 -75.16936821 42.57228358 -71.57421875 36.16796875 C-70.90193613 34.83745821 -70.23384017 33.5048015 -69.57421875 32.16796875 C-68.91421875 32.16796875 -68.25421875 32.16796875 -67.57421875 32.16796875 C-67.30351563 31.58402344 -67.0328125 31.00007813 -66.75390625 30.3984375 C-59.9762385 17.58370808 -45.76747222 9.70401397 -32.57421875 5.16796875 C-21.82823035 1.91501843 -11.22246823 0.01827665 0 0 Z " fill="#FDFEFE" transform="translate(136.57421875,344.83203125)"/>
<path d="M0 0 C5.07375 -0.061875 10.1475 -0.12375 15.375 -0.1875 C16.95458496 -0.21481201 18.53416992 -0.24212402 20.16162109 -0.27026367 C31.36067025 -0.33610711 40.20934703 0.65765104 49.0234375 8.0390625 C54.5226833 13.494836 57.6579338 19.96361889 58.3125 27.6875 C58.19932892 32.9859643 56.55298929 37.97127279 55 43 C54.34 43 53.68 43 53 43 C52.731875 43.763125 52.46375 44.52625 52.1875 45.3125 C51.04865495 47.88988618 50.18583329 49.26954864 48 51 C47.34 51 46.68 51 46 51 C46 51.66 46 52.32 46 53 C45.37351562 53.27714844 44.74703125 53.55429687 44.1015625 53.83984375 C42.87566406 54.38318359 42.87566406 54.38318359 41.625 54.9375 C40.40683594 55.47697266 40.40683594 55.47697266 39.1640625 56.02734375 C37.76316215 56.6569903 36.37374716 57.31312642 35 58 C32.37397954 58.08666427 29.77415384 58.11567559 27.1484375 58.09765625 C26.46241455 58.09664917 25.7763916 58.09564209 25.06958008 58.09460449 C22.50470307 58.08936889 19.93984987 58.07540763 17.375 58.0625 C11.64125 58.041875 5.9075 58.02125 0 58 C0 38.86 0 19.72 0 0 Z " fill="#1875D1" transform="translate(498,402)"/>
<path d="M0 0 C2.08088991 2.08088991 2.55498046 3.14737239 3.48046875 5.8671875 C3.7539917 6.6605249 4.02751465 7.4538623 4.30932617 8.27124023 C4.59912354 9.13048096 4.8889209 9.98972168 5.1875 10.875 C5.8122484 12.69670089 6.43725583 14.51831296 7.0625 16.33984375 C7.3821875 17.27683105 7.701875 18.21381836 8.03125 19.17919922 C8.96461704 21.89697209 9.91550873 24.60775836 10.875 27.31640625 C13.79720047 35.56787618 16.59733602 43.81546943 19.109375 52.203125 C20.20136295 55.63235033 21.54166185 58.91931109 22.91796875 62.2421875 C24.31054126 65.79148784 25.53948569 69.38518042 26.75 73 C26.97292725 73.65983887 27.19585449 74.31967773 27.42553711 74.99951172 C29 79.75197692 29 79.75197692 29 82 C16.66601532 90.12921718 0.23907092 91.08058521 -14.10253906 88.64257812 C-19.42670338 87.3729046 -23.74348903 85.42286251 -28 82 C-25.86733529 70.7550406 -21.55428239 60.2132789 -17.30859375 49.62109375 C-16.16866166 46.46671451 -15.17147163 43.31911338 -14.203125 40.109375 C-12.02797289 32.95661806 -9.57078611 25.92212532 -7.0534668 18.88452148 C-6.3000377 16.77765072 -5.55109897 14.66922129 -4.80273438 12.56054688 C-1.15002562 2.30005125 -1.15002562 2.30005125 0 0 Z " fill="#1A75D0" transform="translate(335,411)"/>
<path d="M0 0 C303.6 0 607.2 0 920 0 C914 7 914 7 911 9 C911.33 7.35 911.66 5.7 912 4 C912.99 4 913.98 4 915 4 C915 3.01 915 2.02 915 1 C613.05 1 311.1 1 0 1 C0 0.67 0 0.34 0 0 Z " fill="#2970B5" transform="translate(0,230)"/>
<path d="M0 0 C0.33 0 0.66 0 1 0 C1 59.73 1 119.46 1 181 C-1.8601731 178.1398269 -2.77745477 174.60815162 -4.125 170.875 C-4.40214844 170.12089844 -4.67929687 169.36679687 -4.96484375 168.58984375 C-5.64817 166.72836879 -6.32473389 164.86441398 -7 163 C-6.01 163 -5.02 163 -4 163 C-3.67 165.31 -3.34 167.62 -3 170 C-2.34 170 -1.68 170 -1 170 C-1.00092179 169.12994103 -1.00184359 168.25988207 -1.00279331 167.36345768 C-1.02484645 146.22471442 -1.04141053 125.08597313 -1.05181217 103.9472208 C-1.0569756 93.72481944 -1.0640192 83.50242574 -1.07543945 73.2800293 C-1.08538485 64.37357212 -1.09185308 55.46712049 -1.09408849 46.56065792 C-1.09539585 41.84171197 -1.09848324 37.1227819 -1.10573006 32.40384102 C-1.11248801 27.96753861 -1.11461742 23.5312587 -1.11310768 19.09495163 C-1.11338411 17.46184988 -1.11539057 15.82874742 -1.11920547 14.1956501 C-1.12413922 11.9757879 -1.12299949 9.75601204 -1.12025452 7.53614807 C-1.12117631 6.29080575 -1.1220981 5.04546343 -1.12304783 3.76238346 C-1 1 -1 1 0 0 Z " fill="#2D71B8" transform="translate(440,345)"/>
<path d="M0 0 C5.176875 -0.020625 10.35375 -0.04125 15.6875 -0.0625 C18.12515747 -0.07615601 18.12515747 -0.07615601 20.61206055 -0.09008789 C21.89894775 -0.09258545 23.18583496 -0.09508301 24.51171875 -0.09765625 C25.82615967 -0.10289307 27.14060059 -0.10812988 28.49487305 -0.11352539 C31.48205125 -0.01677552 34.10592611 0.29656236 37 1 C37 1.66 37 2.32 37 3 C25.45 2.67 13.9 2.34 2 2 C2 20.15 2 38.3 2 57 C9.363125 56.7834375 9.363125 56.7834375 16.875 56.5625 C19.19700439 56.49784546 19.19700439 56.49784546 21.56591797 56.43188477 C23.38567139 56.3747229 23.38567139 56.3747229 25.2421875 56.31640625 C26.4885498 56.27974854 27.73491211 56.24309082 29.01904297 56.20532227 C31.92636942 56.19710521 31.92636942 56.19710521 34 55 C35.99960012 54.960008 38.00047242 54.95653201 40 55 C35.46371591 58.02418939 32.4815994 58.13425582 27.1484375 58.09765625 C26.46241455 58.09664917 25.7763916 58.09564209 25.06958008 58.09460449 C22.50470307 58.08936889 19.93984987 58.07540763 17.375 58.0625 C11.64125 58.041875 5.9075 58.02125 0 58 C0 38.86 0 19.72 0 0 Z " fill="#4A8CCB" transform="translate(498,402)"/>
<path d="M0 0 C12.499571 -0.02312143 24.99913695 -0.04091406 37.49872494 -0.05181217 C43.30213613 -0.05704144 49.10553275 -0.06413987 54.90893555 -0.07543945 C60.50450853 -0.08626678 66.10006745 -0.0922765 71.6956501 -0.09487724 C73.83558944 -0.09673177 75.97552796 -0.10035291 78.11546135 -0.10573006 C81.10164966 -0.11293844 84.08777907 -0.11399103 87.07397461 -0.11352539 C87.96805023 -0.11712067 88.86212585 -0.12071594 89.78329468 -0.12442017 C95.88594784 -0.11405216 95.88594784 -0.11405216 97 1 C100.29273652 1.49889947 103.59269098 1.90154768 106.8984375 2.3046875 C110.02302381 3.00516151 111.10218175 3.50143352 113 6 C107.32980597 5.08050908 107.32980597 5.08050908 105.01737976 4.51602173 C94.74081102 2.20626289 84.18009533 2.64351894 73.70703125 2.5859375 C71.54798155 2.56720305 69.388939 2.54762798 67.22990417 2.5272522 C61.57970413 2.47616548 55.9294804 2.43641487 50.2791748 2.39910889 C44.50051123 2.35892134 38.72194415 2.30789664 32.94335938 2.2578125 C21.62897427 2.16133134 10.31453438 2.07683846 -1 2 C-0.67 1.34 -0.34 0.68 0 0 Z " fill="#2B70B8" transform="translate(442,343)"/>
<path d="M0 0 C1.5 1.375 1.5 1.375 3 3 C3 3.66 3 4.32 3 5 C36.99 5 70.98 5 106 5 C106.33 4.34 106.66 3.68 107 3 C107 4.32 107 5.64 107 7 C72.02 7 37.04 7 1 7 C0.67 4.69 0.34 2.38 0 0 Z " fill="#EAFEFE" transform="translate(391,568)"/>
<path d="M0 0 C22.44 0 44.88 0 68 0 C68 0.66 68 1.32 68 2 C45.89 2 23.78 2 1 2 C0.34 3.98 -0.32 5.96 -1 8 C-1.66 8.66 -2.32 9.32 -3 10 C-3 7.69 -3 5.38 -3 3 C-2.34 3 -1.68 3 -1 3 C-0.67 2.01 -0.34 1.02 0 0 Z " fill="#2C71B9" transform="translate(300,343)"/>
<path d="M0 0 C2.14082246 2.14082246 2.59262865 3.30767976 3.5078125 6.1328125 C3.77207031 6.93847656 4.03632813 7.74414062 4.30859375 8.57421875 C4.57800781 9.41597656 4.84742188 10.25773437 5.125 11.125 C5.40214844 11.97449219 5.67929687 12.82398438 5.96484375 13.69921875 C6.6486468 15.79778673 7.32678277 17.89801696 8 20 C7.34 20.33 6.68 20.66 6 21 C6 20.34 6 19.68 6 19 C5.01 19.33 4.02 19.66 3 20 C2.566875 19.34 2.13375 18.68 1.6875 18 C0.8521875 17.01 0.8521875 17.01 0 16 C-0.99 16 -1.98 16 -3 16 C-3.309375 16.61875 -3.61875 17.2375 -3.9375 17.875 C-4.625 19.25 -5.3125 20.625 -6 22 C-6.66 21.67 -7.32 21.34 -8 21 C-5.36 14.07 -2.72 7.14 0 0 Z " fill="#297ACA" transform="translate(335,411)"/>
<path d="M0 0 C-1.76463072 6.10737442 -3.69557475 12.07433507 -6 18 C-6.33 16.68 -6.66 15.36 -7 14 C-7.66 14 -8.32 14 -9 14 C-9 12.68 -9 11.36 -9 10 C-10.2375 10.350625 -11.475 10.70125 -12.75 11.0625 C-15.903292 11.95593273 -17.86774164 12.00881294 -21 11 C-20.04738281 10.54109375 -19.09476563 10.0821875 -18.11328125 9.609375 C-16.84619428 8.98991026 -15.5792761 8.37010019 -14.3125 7.75 C-13.68666016 7.44964844 -13.06082031 7.14929688 -12.41601562 6.83984375 C-8.55859998 4.94142977 -3.98337465 0 0 0 Z " fill="#2176CD" transform="translate(219,553)"/>
<path d="M0 0 C0.67401855 0.20278564 1.34803711 0.40557129 2.04248047 0.61450195 C2.93338379 0.88222412 3.82428711 1.14994629 4.7421875 1.42578125 C5.62245605 1.69044189 6.50272461 1.95510254 7.40966797 2.2277832 C10.59922427 3.17863774 13.79720228 4.09486151 17 5 C14 7 14 7 10 7 C9.67 6.34 9.34 5.68 9 5 C6.88153715 4.31270746 6.88153715 4.31270746 4.4375 3.875 C3.61121094 3.70742188 2.78492188 3.53984375 1.93359375 3.3671875 C1.29550781 3.24601563 0.65742188 3.12484375 0 3 C0.020625 3.969375 0.04125 4.93875 0.0625 5.9375 C0 9 0 9 -1 10 C-1.39454223 11.84599688 -1.74176866 13.70225822 -2.0625 15.5625 C-2.23910156 16.57441406 -2.41570312 17.58632813 -2.59765625 18.62890625 C-2.73042969 19.41136719 -2.86320312 20.19382812 -3 21 C-3.66 21 -4.32 21 -5 21 C-5.185625 22.3303125 -5.185625 22.3303125 -5.375 23.6875 C-5.94412736 26.70387502 -6.76614436 29.20326054 -8 32 C-8.66 31.67 -9.32 31.34 -10 31 C-7.45115129 20.41620917 -3.6653736 10.23507071 0 0 Z " fill="#3076BF" transform="translate(289,541)"/>
<path d="M0 0 C2 2 2 2 2.265625 4.0234375 C2.26046875 4.79945313 2.2553125 5.57546875 2.25 6.375 C2.25515625 7.14585937 2.2603125 7.91671875 2.265625 8.7109375 C1.95567048 11.38201613 1.53814517 12.7811814 0 15 C-8.19522183 21.40437017 -18.75539445 23.70652452 -29 23 C-25.91111478 20.94074319 -25.29064073 20.7609626 -21.8125 20.875 C-20.554375 20.91625 -19.29625 20.9575 -18 21 C-18 20.34 -18 19.68 -18 19 C-14.04 18.34 -10.08 17.68 -6 17 C-6.33 15.68 -6.66 14.36 -7 13 C-5.35 13 -3.7 13 -2 13 C-1.67 11.35 -1.34 9.7 -1 8 C-0.34 8 0.32 8 1 8 C0.67 5.36 0.34 2.72 0 0 Z " fill="#2E77C1" transform="translate(172,500)"/>
<path d="M0 0 C0.33 0.66 0.66 1.32 1 2 C0.69835937 2.58652344 0.39671875 3.17304688 0.0859375 3.77734375 C-1.2444096 6.50024842 -1.33390959 8.54235451 -1.375 11.5625 C-1.40335937 12.51253906 -1.43171875 13.46257812 -1.4609375 14.44140625 C-1.25217856 17.15491353 -1.25217856 17.15491353 1.0234375 18.71484375 C1.67570312 19.13894531 2.32796875 19.56304687 3 20 C3 20.66 3 21.32 3 22 C8.52714002 26.51356706 15.51151913 29.19707168 22 32 C19.17044345 33.15754586 18.10578777 33.0405176 15.1953125 31.92578125 C12.11591401 30.30772581 9.04513597 28.6817641 6 27 C5.34773438 26.65453125 4.69546875 26.3090625 4.0234375 25.953125 C-0.00841719 23.59604072 -2.5208037 20.37941826 -4 16 C-4.77406097 11.01599521 -4.84798893 6.67749756 -2 2.375 C-1.34 1.59125 -0.68 0.8075 0 0 Z " fill="#3275B8" transform="translate(119,400)"/>
<path d="M0 0 C-0.99 0.33 -1.98 0.66 -3 1 C-3.33 1.99 -3.66 2.98 -4 4 C-4.66 4 -5.32 4 -6 4 C-6 4.66 -6 5.32 -6 6 C-6.55010742 5.8158252 -7.10021484 5.63165039 -7.66699219 5.44189453 C-10.51055661 4.90329558 -12.49860739 5.33577185 -15.328125 5.9296875 C-22.49899882 7.22654766 -29.48235266 7.22362152 -36.75 7.125 C-38.03132813 7.11597656 -39.31265625 7.10695313 -40.6328125 7.09765625 C-43.75541221 7.07435327 -46.87760025 7.04164054 -50 7 C-50 6.67 -50 6.34 -50 6 C-49.01942627 5.97812622 -49.01942627 5.97812622 -48.01904297 5.95581055 C-32.54957195 5.57090987 -18.63817549 4.43408576 -3.890625 -0.546875 C-2 -1 -2 -1 0 0 Z " fill="#2C74BE" transform="translate(375,544)"/>
<path d="M0 0 C0.495 1.485 0.495 1.485 1 3 C0.67 3.66 0.34 4.32 0 5 C-22.11 5 -44.22 5 -67 5 C-66.34 3.68 -65.68 2.36 -65 1 C-64.67 1.66 -64.34 2.32 -64 3 C-43.21 3.33 -22.42 3.66 -1 4 C-0.67 2.68 -0.34 1.36 0 0 Z " fill="#DFFDFE" transform="translate(278,570)"/>
<path d="M0 0 C0 0.99 0 1.98 0 3 C-11.22 3 -22.44 3 -34 3 C-34 2.34 -34 1.68 -34 1 C-29.47934189 0.8571864 -24.9586712 0.71478006 -20.43798828 0.57275391 C-18.89957328 0.52436382 -17.3611618 0.47586174 -15.82275391 0.42724609 C-13.6136159 0.35745385 -11.40446562 0.28806219 -9.1953125 0.21875 C-8.50567413 0.19687622 -7.81603577 0.17500244 -7.10549927 0.15246582 C-2.22774341 0 -2.22774341 0 0 0 Z " fill="#2771BB" transform="translate(162,342)"/>
<path d="M0 0 C1.58333333 0.79166667 3.16666667 1.58333333 4.75 2.375 C2.11 5.015 -0.53 7.655 -3.25 10.375 C-3.58 9.385 -3.91 8.395 -4.25 7.375 C-3.59 7.375 -2.93 7.375 -2.25 7.375 C-2.58 6.385 -2.91 5.395 -3.25 4.375 C-5.23 5.365 -5.23 5.365 -7.25 6.375 C-7.25 7.035 -7.25 7.695 -7.25 8.375 C-8.57 8.375 -9.89 8.375 -11.25 8.375 C-9.35824303 3.26725619 -5.66075952 -1.0886076 0 0 Z " fill="#1775CD" transform="translate(749.25,401.625)"/>
<path d="M0 0 C0.98396507 0.00424484 0.98396507 0.00424484 1.98780823 0.00857544 C4.05587034 0.01965266 6.12347798 0.04473187 8.19140625 0.0703125 C9.6048114 0.08035848 11.01822342 0.08948148 12.43164062 0.09765625 C15.87254019 0.11955066 19.31317877 0.15399199 22.75390625 0.1953125 C22.75390625 0.5253125 22.75390625 0.8553125 22.75390625 1.1953125 C14.83390625 1.1953125 6.91390625 1.1953125 -1.24609375 1.1953125 C-1.24609375 2.1853125 -1.24609375 3.1753125 -1.24609375 4.1953125 C-0.25609375 4.5253125 0.73390625 4.8553125 1.75390625 5.1953125 C1.09390625 5.1953125 0.43390625 5.1953125 -0.24609375 5.1953125 C-0.57609375 5.8553125 -0.90609375 6.5153125 -1.24609375 7.1953125 C-2.23609375 6.2053125 -3.22609375 5.2153125 -4.24609375 4.1953125 C-3.91609375 3.8653125 -3.58609375 3.5353125 -3.24609375 3.1953125 C-6.21609375 2.7003125 -6.21609375 2.7003125 -9.24609375 2.1953125 C-9.24609375 2.8553125 -9.24609375 3.5153125 -9.24609375 4.1953125 C-10.89609375 4.1953125 -12.54609375 4.1953125 -14.24609375 4.1953125 C-14.24609375 3.5353125 -14.24609375 2.8753125 -14.24609375 2.1953125 C-9.32150792 0.59889601 -5.23016174 -0.04489409 0 0 Z M-0.24609375 2.1953125 C1.40390625 2.1953125 3.05390625 2.1953125 4.75390625 2.1953125 C3.76390625 2.8553125 2.77390625 3.5153125 1.75390625 4.1953125 C1.09390625 3.5353125 0.43390625 2.8753125 -0.24609375 2.1953125 Z " fill="#2C75BD" transform="translate(143.24609375,392.8046875)"/>
<path d="M0 0 C1.65 0.33 3.3 0.66 5 1 C0.70214922 6.03163018 -3.63425542 11.02718443 -8 16 C-10 13 -10 13 -10 11 C-9.34 10.67 -8.68 10.34 -8 10 C-7.71125 9.38125 -7.4225 8.7625 -7.125 8.125 C-5.78914952 5.60172687 -4.403946 4.50246625 -2 3 C-1.34 3 -0.68 3 0 3 C0 2.01 0 1.02 0 0 Z " fill="#1D6EC0" transform="translate(796,353)"/>
<path d="M0 0 C0.33 0 0.66 0 1 0 C0.979375 1.11375 0.95875 2.2275 0.9375 3.375 C0.73619282 6.83215921 0.73619282 6.83215921 2 9 C1.34 9 0.68 9 0 9 C-0.28746094 9.721875 -0.57492187 10.44375 -0.87109375 11.1875 C-1.5833614 12.96200763 -2.30364744 14.73333722 -3.03515625 16.5 C-3.54369141 17.7375 -3.54369141 17.7375 -4.0625 19 C-4.57490234 20.2375 -4.57490234 20.2375 -5.09765625 21.5 C-5.99670133 23.99086083 -6.54864675 26.39424927 -7 29 C-6.01 29 -5.02 29 -4 29 C-4 29.66 -4 30.32 -4 31 C-3.34 31 -2.68 31 -2 31 C-2.33 31.66 -2.66 32.32 -3 33 C-4.98 31.68 -6.96 30.36 -9 29 C-7.70492007 22.17139673 -5.61901357 15.85225943 -3.21875 9.33203125 C-2.08713559 6.23822647 -1.02597961 3.13018781 0 0 Z " fill="#3E7EBF" transform="translate(316,464)"/>
<path d="M0 0 C1.35544922 0.10828125 1.35544922 0.10828125 2.73828125 0.21875 C3.91777344 0.3115625 5.09726563 0.404375 6.3125 0.5 C7.48425781 0.5928125 8.65601563 0.685625 9.86328125 0.78125 C11.905194 0.92364989 13.9531279 1 16 1 C16.33 1.66 16.66 2.32 17 3 C21.73901307 5.55407862 26.86427902 7.41977816 32 9 C32 9.99 32 10.98 32 12 C30.989375 11.443125 29.97875 10.88625 28.9375 10.3125 C19.91540881 5.8014544 9.87482323 2.90566764 0 1 C0 0.67 0 0.34 0 0 Z " fill="#3A7EC1" transform="translate(175,444)"/>
<path d="M0 0 C0.99 0 1.98 0 3 0 C3.93537598 0.23771118 3.93537598 0.23771118 4.88964844 0.48022461 C7.21779481 1.05364243 9.37123873 1.20896584 11.765625 1.31640625 C12.65507812 1.35830078 13.54453125 1.40019531 14.4609375 1.44335938 C15.38132812 1.48267578 16.30171875 1.52199219 17.25 1.5625 C18.18585938 1.60568359 19.12171875 1.64886719 20.0859375 1.69335938 C22.39048641 1.7991805 24.69513839 1.90126557 27 2 C27 2.33 27 2.66 27 3 C23.39585115 3.02953103 19.79173424 3.04697407 16.1875 3.0625 C15.18267578 3.07087891 14.17785156 3.07925781 13.14257812 3.08789062 C-5.2793125 3.147125 -5.2793125 3.147125 -10 0 C-3.375 -1.125 -3.375 -1.125 0 0 Z " fill="#DAF2FB" transform="translate(322,547)"/>
<path d="M0 0 C0 0.66 0 1.32 0 2 C-4.9008092 4.96556573 -8.87764693 5.34993818 -14.4609375 5.07421875 C-15.6467894 5.03455742 -15.6467894 5.03455742 -16.8565979 4.99409485 C-19.36354443 4.9068343 -21.86895935 4.79751543 -24.375 4.6875 C-26.08197764 4.62418865 -27.7890096 4.56232442 -29.49609375 4.50195312 C-33.66487763 4.35137538 -37.83243152 4.18101944 -42 4 C-42 3.67 -42 3.34 -42 3 C-40.96593018 2.98018066 -39.93186035 2.96036133 -38.86645508 2.93994141 C-35.01774381 2.86367773 -31.1694004 2.77499286 -27.32104492 2.68261719 C-25.65770752 2.64441304 -23.99428992 2.60954537 -22.33081055 2.578125 C-19.9350932 2.53228766 -17.53992391 2.47432533 -15.14453125 2.4140625 C-14.4047554 2.40251129 -13.66497955 2.39096008 -12.90278625 2.37905884 C-8.32464177 2.24917166 -4.30084637 0 0 0 Z " fill="#EBFFFF" transform="translate(540,457)"/>
<path d="M0 0 C0.33 0 0.66 0 1 0 C1.01981934 0.55985596 1.03963867 1.11971191 1.06005859 1.6965332 C1.15537783 4.23565854 1.26502753 6.77396888 1.375 9.3125 C1.4059375 10.19357422 1.436875 11.07464844 1.46875 11.98242188 C1.52675781 13.25375977 1.52675781 13.25375977 1.5859375 14.55078125 C1.6173584 15.33106689 1.6487793 16.11135254 1.68115234 16.9152832 C1.89587889 19.30155768 1.89587889 19.30155768 4 22 C4 24.33333333 4 26.66666667 4 29 C4.6469365 30.6744239 5.30959426 32.34302621 6 34 C5.67 34.99 5.34 35.98 5 37 C4.34398256 35.48353179 3.7007336 33.96153825 3.0625 32.4375 C2.52302734 31.16712891 2.52302734 31.16712891 1.97265625 29.87109375 C-0.28142071 23.21749308 -0.12742134 16.49909525 -0.0625 9.5625 C-0.05798828 8.64017578 -0.05347656 7.71785156 -0.04882812 6.76757812 C-0.03713938 4.51164952 -0.02075455 2.25586033 0 0 Z " fill="#E1F7FD" transform="translate(58,401)"/>
<path d="M0 0 C0.33 0.66 0.66 1.32 1 2 C0.34 2.66 -0.32 3.32 -1 4 C-1.31208427 6.30189984 -1.31208427 6.30189984 -1.375 8.875 C-1.65660839 12.41814553 -1.77791697 13.69911331 -3.9375 16.625 C-6 18 -6 18 -8 18 C-7.01984561 14.32768822 -6.01623836 10.6624828 -5 7 C-4.67 5.80375 -4.34 4.6075 -4 3.375 C-3.67 2.59125 -3.34 1.8075 -3 1 C-2.01 0.67 -1.02 0.34 0 0 Z " fill="#2978C6" transform="translate(326,443)"/>
<path d="M0 0 C0.66 0 1.32 0 2 0 C2 1.32 2 2.64 2 4 C2.99 4 3.98 4 5 4 C5.18451025 13.41002278 5.18451025 13.41002278 4 18 C3.34 18 2.68 18 2 18 C1.34 12.06 0.68 6.12 0 0 Z " fill="#2372C0" transform="translate(611,409)"/>
<path d="M0 0 C0.8655047 2.26708325 1.71759315 4.53775079 2.5625 6.8125 C2.9327832 7.77639648 2.9327832 7.77639648 3.31054688 8.75976562 C5.11328125 13.66015625 5.11328125 13.66015625 4 17 C2 14 2 14 1 10.875 C0.3313327 7.87488938 0.3313327 7.87488938 -2 7 C-2 5.35 -2 3.7 -2 2 C-2.99 1.67 -3.98 1.34 -5 1 C-3 0 -3 0 0 0 Z " fill="#2F77BF" transform="translate(382,541)"/>
<path d="M0 0 C1.60568666 0.28317926 3.20952047 0.57687791 4.8125 0.875 C6.15248047 1.11863281 6.15248047 1.11863281 7.51953125 1.3671875 C10 2 10 2 13 4 C10.56612247 5.21693876 8.58161154 5.31959896 5.875 5.5625 C4.96492187 5.64628906 4.05484375 5.73007812 3.1171875 5.81640625 C2.06917969 5.90728516 2.06917969 5.90728516 1 6 C0.67 4.02 0.34 2.04 0 0 Z " fill="#2374C4" transform="translate(127,481)"/>
<path d="M0 0 C-0.62678171 3.66172475 -1.64451846 6.8818995 -3.0625 10.3125 C-3.42472656 11.19550781 -3.78695313 12.07851563 -4.16015625 12.98828125 C-4.43730469 13.65214844 -4.71445312 14.31601562 -5 15 C-6.25541557 11.23375329 -5.37061958 9.62811066 -4 6 C-4.66 6 -5.32 6 -6 6 C-5.6875 4.125 -5.6875 4.125 -5 2 C-2 0 -2 0 0 0 Z " fill="#2475C0" transform="translate(281,394)"/>
<path d="M0 0 C0.66 0 1.32 0 2 0 C2.33 0.99 2.66 1.98 3 3 C3.66 3.66 4.32 4.32 5 5 C3.515 7.475 3.515 7.475 2 10 C1.93941406 9.38640625 1.87882813 8.7728125 1.81640625 8.140625 C1.1788835 5.77820953 1.1788835 5.77820953 -1.28515625 4.734375 C-2.20167969 4.40953125 -3.11820313 4.0846875 -4.0625 3.75 C-4.98160156 3.41484375 -5.90070313 3.0796875 -6.84765625 2.734375 C-7.55792969 2.49203125 -8.26820313 2.2496875 -9 2 C-9 1.67 -9 1.34 -9 1 C-3.375 0.75 -3.375 0.75 0 3 C0 2.01 0 1.02 0 0 Z " fill="#2474C1" transform="translate(226,352)"/>
<path d="M0 0 C1.09570312 0.00902344 2.19140625 0.01804687 3.3203125 0.02734375 C4.16335937 0.03894531 5.00640625 0.05054688 5.875 0.0625 C5.875 0.3925 5.875 0.7225 5.875 1.0625 C3.37556796 1.54479332 0.87551757 2.02339426 -1.625 2.5 C-2.32109375 2.63470703 -3.0171875 2.76941406 -3.734375 2.90820312 C-8.51802198 3.81621019 -13.2881341 4.50146713 -18.125 5.0625 C-18.125 4.0725 -18.125 3.0825 -18.125 2.0625 C-17.07699219 1.97162109 -17.07699219 1.97162109 -16.0078125 1.87890625 C-15.09773438 1.79511719 -14.18765625 1.71132813 -13.25 1.625 C-12.34507813 1.54378906 -11.44015625 1.46257812 -10.5078125 1.37890625 C-0.11429961 -0.00121595 -0.11429961 -0.00121595 0 0 Z " fill="#2C71B6" transform="translate(122.125,344.9375)"/>
<path d="M0 0 C1.65 0 3.3 0 5 0 C1.0580583 4.88049925 -3.11950075 9.0580583 -8 13 C-8 11.68 -8 10.36 -8 9 C-7.01 8.67 -6.02 8.34 -5 8 C-4.34 7.01 -3.68 6.02 -3 5 C-2.34 5 -1.68 5 -1 5 C-0.67 3.35 -0.34 1.7 0 0 Z " fill="#276AB4" transform="translate(826,323)"/>
<path d="M0 0 C1.98 0.495 1.98 0.495 4 1 C4 1.66 4 2.32 4 3 C5.98 2.67 7.96 2.34 10 2 C10.99 3.485 10.99 3.485 12 5 C11.01 5.99 10.02 6.98 9 8 C5.7 6.02 2.4 4.04 -1 2 C-0.67 1.34 -0.34 0.68 0 0 Z " fill="#2878C7" transform="translate(211,456)"/>
<path d="M0 0 C0.66 0 1.32 0 2 0 C0.47536437 7.49612516 -1.68006154 14.71359134 -4 22 C-5.1171875 18.2890625 -5.1171875 18.2890625 -4.0625 15.6875 C-2.78057143 12.94869352 -2.78057143 12.94869352 -3.0625 9.5625 C-2.99259753 5.57805894 -1.99142602 3.40201945 0 0 Z " fill="#2972BF" transform="translate(69,512)"/>
<path d="M0 0 C0.99 0.66 1.98 1.32 3 2 C2.30132813 2.33773438 1.60265625 2.67546875 0.8828125 3.0234375 C-0.02726563 3.46945312 -0.93734375 3.91546875 -1.875 4.375 C-2.77992188 4.81585938 -3.68484375 5.25671875 -4.6171875 5.7109375 C-7.09534472 6.90502699 -7.09534472 6.90502699 -9 9 C-11.625 8.625 -11.625 8.625 -14 8 C-11.60248782 5.22142628 -9.29250217 4.14037252 -5.875 2.875 C-2.68358377 1.84978201 -2.68358377 1.84978201 0 0 Z " fill="#2B78C4" transform="translate(567,507)"/>
<path d="M0 0 C5.94 0 11.88 0 18 0 C18.33 0.66 18.66 1.32 19 2 C20.98 2 22.96 2 25 2 C25.33 2.99 25.66 3.98 26 5 C20.49220159 4.37647565 15.08124255 3.49340042 9.6328125 2.4765625 C6.4301728 1.8968562 3.22576104 1.43010147 0 1 C0 0.67 0 0.34 0 0 Z " fill="#CCE8F8" transform="translate(174,394)"/>
<path d="M0 0 C1.65 0.33 3.3 0.66 5 1 C3.35 3.64 1.7 6.28 0 9 C-0.99 8.67 -1.98 8.34 -3 8 C-2.45276317 4.62537285 -1.9451 2.91765 0 0 Z " fill="#2478C5" transform="translate(69,368)"/>
<path d="M0 0 C0.66 0.33 1.32 0.66 2 1 C0.90344712 2.31886772 -0.20253423 3.62990057 -1.3125 4.9375 C-1.92738281 5.66839844 -2.54226562 6.39929688 -3.17578125 7.15234375 C-5 9 -5 9 -8 10 C-9.42857119 11.40105576 -9.42857119 11.40105576 -10.6875 13.0625 C-11.450625 14.031875 -12.21375 15.00125 -13 16 C-13 11.93645091 -11.47015238 10.94829419 -8.75 8 C-7.96109375 7.13375 -7.1721875 6.2675 -6.359375 5.375 C-4.3351828 3.33740256 -2.34982916 1.63841299 0 0 Z " fill="#E7FAFE" transform="translate(83,361)"/>
<path d="M0 0 C0 0.99 0 1.98 0 3 C1.65 2.67 3.3 2.34 5 2 C3.02 4.31 1.04 6.62 -1 9 C-3.5654594 6.4345406 -3.54046087 4.52313332 -4 1 C-2 0 -2 0 0 0 Z " fill="#2174C5" transform="translate(550,609)"/>
<path d="M0 0 C1.16917969 0.34933594 2.33835937 0.69867187 3.54296875 1.05859375 C5.09111138 1.5183452 6.63929039 1.97797417 8.1875 2.4375 C8.95642578 2.66759766 9.72535156 2.89769531 10.51757812 3.13476562 C14.32525141 4.26235986 18.08151762 5.3168177 22 6 C22 6.33 22 6.66 22 7 C18.37 7.33 14.74 7.66 11 8 C11.33 7.01 11.66 6.02 12 5 C11.30132812 4.86722656 10.60265625 4.73445312 9.8828125 4.59765625 C8.97273438 4.42105469 8.06265625 4.24445312 7.125 4.0625 C6.22007813 3.88847656 5.31515625 3.71445312 4.3828125 3.53515625 C2 3 2 3 0 2 C0 1.34 0 0.68 0 0 Z " fill="#2771BC" transform="translate(69,564)"/>
<path d="M0 0 C0.66 0 1.32 0 2 0 C2 0.66 2 1.32 2 2 C2.66 2 3.32 2 4 2 C2.4169423 6.2742558 -0.50568404 8.26531794 -4 11 C-4 9.35 -4 7.7 -4 6 C-2.68 6 -1.36 6 0 6 C-0.66 4.68 -1.32 3.36 -2 2 C-1.34 1.34 -0.68 0.68 0 0 Z " fill="#1D6FC1" transform="translate(725,426)"/>
<path d="M0 0 C2.475 0.495 2.475 0.495 5 1 C4.938125 1.886875 4.87625 2.77375 4.8125 3.6875 C5.0231856 7.40961226 6.08367202 8.88596702 8 12 C8.1875 14.8125 8.1875 14.8125 8 17 C5.72195761 14.12071475 3.95965316 11.2169671 2.3125 7.9375 C1.87550781 7.08027344 1.43851563 6.22304688 0.98828125 5.33984375 C0 3 0 3 0 0 Z " fill="#2B75BC" transform="translate(601,385)"/>
<path d="M0 0 C1.65 0.33 3.3 0.66 5 1 C4.04578192 2.14926266 3.08647955 3.29430541 2.125 4.4375 C1.59132813 5.07558594 1.05765625 5.71367187 0.5078125 6.37109375 C-1 8 -1 8 -3 9 C-2.5020163 5.26512223 -2.12508244 3.18762365 0 0 Z " fill="#216FC1" transform="translate(733,419)"/>
<path d="M0 0 C2.3431213 0.25561323 4.67843403 0.59270772 7 1 C8 3 8 3 7.0625 6.125 C6.711875 7.07375 6.36125 8.0225 6 9 C2.91910327 6.22719294 1.31224548 3.93673644 0 0 Z " fill="#2574C5" transform="translate(231,473)"/>
<path d="M0 0 C0.33 0 0.66 0 1 0 C0.979375 1.11375 0.95875 2.2275 0.9375 3.375 C0.73619282 6.83215921 0.73619282 6.83215921 2 9 C1.34 9 0.68 9 0 9 C-1.07525194 11.65228812 -2.09456151 14.28368454 -3 17 C-3.66 17 -4.32 17 -5 17 C-1.92482916 5.47835991 -1.92482916 5.47835991 0 0 Z " fill="#3279C2" transform="translate(316,464)"/>
<path d="M0 0 C3.64775386 3.88309282 4.58525633 6.71201818 5 12 C5.66 12 6.32 12 7 12 C7 13.98 7 15.96 7 18 C4.50752478 14.97903433 3.12043668 12.12076995 1.8125 8.4375 C1.46832031 7.48746094 1.12414062 6.53742188 0.76953125 5.55859375 C0 3 0 3 0 0 Z " fill="#3579BE" transform="translate(400,423)"/>
<path d="M0 0 C0.66 0.33 1.32 0.66 2 1 C-3.48286421 4.91419734 -8.3386656 6.96687638 -15 8 C-13.41169958 4.82339917 -10.19515574 4.13200316 -7.0625 2.8125 C-6.41603516 2.52697266 -5.76957031 2.24144531 -5.10351562 1.94726562 C-3.42886164 1.23253791 -1.71580039 0.60936911 0 0 Z " fill="#D8F1FB" transform="translate(104,350)"/>
<path d="M0 0 C-0.45034123 1.62723299 -0.91055354 3.25173664 -1.375 4.875 C-1.63023437 5.77992188 -1.88546875 6.68484375 -2.1484375 7.6171875 C-3 10 -3 10 -5 12 C-4.67 9.69 -4.34 7.38 -4 5 C-4.33 5.33 -4.66 5.66 -5 6 C-7.0625 5.5625 -7.0625 5.5625 -9 5 C-7.87926138 4.16094435 -6.75325453 3.32892169 -5.625 2.5 C-4.99851563 2.0359375 -4.37203125 1.571875 -3.7265625 1.09375 C-2 0 -2 0 0 0 Z " fill="#3173B7" transform="translate(219,553)"/>
<path d="M0 0 C1.32 0.66 2.64 1.32 4 2 C3.44894091 5.9492568 2.61064629 9.34920174 1 13 C0.67 13 0.34 13 0 13 C-0.19658808 11.58456585 -0.38187546 10.16755969 -0.5625 8.75 C-0.66691406 7.96109375 -0.77132813 7.1721875 -0.87890625 6.359375 C-1.00027349 3.99467126 -0.69633257 2.2488963 0 0 Z " fill="#2675C3" transform="translate(291,356)"/>
<path d="M0 0 C0.99 0.33 1.98 0.66 3 1 C-0.8447162 4.8447162 -5.93196521 7.15707826 -11 9 C-10.67 8.01 -10.34 7.02 -10 6 C-9.34 6 -8.68 6 -8 6 C-8 5.34 -8 4.68 -8 4 C-4.91190305 2.23537317 -3.76687864 2 0 2 C0 1.34 0 0.68 0 0 Z " fill="#2F77C0" transform="translate(92,353)"/>
<path d="M0 0 C0.33 0.99 0.66 1.98 1 3 C0.34 3 -0.32 3 -1 3 C-1.4021875 4.1446875 -1.4021875 4.1446875 -1.8125 5.3125 C-2.94424112 7.87380884 -3.91223401 9.19692938 -6 11 C-6.66 10.67 -7.32 10.34 -8 10 C-7.319375 8.88625 -7.319375 8.88625 -6.625 7.75 C-5.00745004 5.13319022 -5.00745004 5.13319022 -4 2.75 C-3 1 -3 1 0 0 Z " fill="#2C75BA" transform="translate(552,442)"/>
<path d="M0 0 C2.20857055 0.14219564 4.41684987 0.28891847 6.625 0.4375 C7.85476562 0.51871094 9.08453125 0.59992188 10.3515625 0.68359375 C13.61532388 0.96663944 16.77943859 1.41038953 20 2 C20 2.33 20 2.66 20 3 C17.60385874 3.05425226 15.20896147 3.09379027 12.8125 3.125 C11.80219727 3.15013672 11.80219727 3.15013672 10.77148438 3.17578125 C6.71192193 3.21538674 3.65001185 2.80020002 0 1 C0 0.67 0 0.34 0 0 Z " fill="#2771BB" transform="translate(167,394)"/>
<path d="M0 0 C0.66 0 1.32 0 2 0 C5 6.625 5 6.625 5 10 C5.66 10 6.32 10 7 10 C7 11.98 7 13.96 7 16 C4.28659072 12.79677758 3.06935064 9.73725031 1.8125 5.75 C1.46832031 4.67234375 1.12414062 3.5946875 0.76953125 2.484375 C0.51558594 1.66453125 0.26164062 0.8446875 0 0 Z " fill="#3679BE" transform="translate(368,345)"/>
<path d="M0 0 C1.625 2.5 1.625 2.5 3 5 C1.35 5 -0.3 5 -2 5 C-2 5.66 -2 6.32 -2 7 C-2.66 7 -3.32 7 -4 7 C-4.33 5.35 -4.66 3.7 -5 2 C-2 0 -2 0 0 0 Z " fill="#2474C7" transform="translate(72,451)"/>
<path d="M0 0 C0.66 0 1.32 0 2 0 C2.6875 1.6875 2.6875 1.6875 3 4 C1.6875 6.4375 1.6875 6.4375 0 9 C-0.350625 9.9075 -0.70125 10.815 -1.0625 11.75 C-2 14 -2 14 -4 15 C-3.69255859 14.00419922 -3.69255859 14.00419922 -3.37890625 12.98828125 C-3.10949219 12.10527344 -2.84007812 11.22226562 -2.5625 10.3125 C-2.29566406 9.44238281 -2.02882812 8.57226562 -1.75390625 7.67578125 C-1.03655471 5.12974079 -0.482459 2.5996577 0 0 Z " fill="#D3EAF6" transform="translate(218,552)"/>
<path d="M0 0 C3.82669043 3.42388092 5.72278474 6.00724943 7 11 C5.35 10.67 3.7 10.34 2 10 C2 7.69 2 5.38 2 3 C1.34 3 0.68 3 0 3 C0 2.01 0 1.02 0 0 Z " fill="#397FC5" transform="translate(547,411)"/>
<path d="M0 0 C1.98 0 3.96 0 6 0 C5.06725891 1.12894876 4.12859878 2.25300876 3.1875 3.375 C2.66542969 4.00148438 2.14335938 4.62796875 1.60546875 5.2734375 C0 7 0 7 -3 9 C-3 8.01 -3 7.02 -3 6 C-2.34 6 -1.68 6 -1 6 C-0.67 4.02 -0.34 2.04 0 0 Z " fill="#226CBB" transform="translate(748,403)"/>
<path d="M0 0 C1.13643966 3.40931897 0.86747764 4.00335456 -0.4375 7.1875 C-0.72496094 7.90292969 -1.01242188 8.61835938 -1.30859375 9.35546875 C-1.53675781 9.89816406 -1.76492187 10.44085938 -2 11 C-2.33 11 -2.66 11 -3 11 C-3.33 8.03 -3.66 5.06 -4 2 C-2.68 1.34 -1.36 0.68 0 0 Z " fill="#2973C4" transform="translate(62,384)"/>
<path d="M0 0 C2.31 0.33 4.62 0.66 7 1 C7 1.66 7 2.32 7 3 C6.34 3 5.68 3 5 3 C4.34 4.32 3.68 5.64 3 7 C2.01 7 1.02 7 0 7 C0.185625 6.21625 0.37125 5.4325 0.5625 4.625 C1.25962266 2.02910225 1.25962266 2.02910225 0 0 Z " fill="#1C6DBD" transform="translate(530,628)"/>
<path d="M0 0 C-0.97566112 1.16959987 -1.955625 2.33561177 -2.9375 3.5 C-3.48277344 4.1496875 -4.02804687 4.799375 -4.58984375 5.46875 C-5.05519531 5.9740625 -5.52054688 6.479375 -6 7 C-6.33 7 -6.66 7 -7 7 C-7 5.02 -7 3.04 -7 1 C-3.375 -1.125 -3.375 -1.125 0 0 Z " fill="#206DBA" transform="translate(562,604)"/>
<path d="M0 0 C0.6640625 1.76953125 0.6640625 1.76953125 1 4 C-1.08529225 7.78645171 -3.76243431 10.59644597 -7.875 11.9375 C-8.57625 11.958125 -9.2775 11.97875 -10 12 C-9.67 11.34 -9.34 10.68 -9 10 C-8.34 10 -7.68 10 -7 10 C-7 9.34 -7 8.68 -7 8 C-6.21625 7.38125 -5.4325 6.7625 -4.625 6.125 C-2.13770844 4.11147826 -1.14461734 2.91357141 0 0 Z " fill="#DBF5FC" transform="translate(551,445)"/>
<path d="M0 0 C1.32 1.32 2.64 2.64 4 4 C2.625 6 2.625 6 1 8 C0.34 8 -0.32 8 -1 8 C-1.33 5.69 -1.66 3.38 -2 1 C-1.34 0.67 -0.68 0.34 0 0 Z " fill="#1E71C3" transform="translate(902,241)"/>
<path d="M0 0 C0.33 0.99 0.66 1.98 1 3 C-0.4117783 3.53394179 -1.82970244 4.05165104 -3.25 4.5625 C-4.03890625 4.85253906 -4.8278125 5.14257812 -5.640625 5.44140625 C-8.19103452 6.04522837 -9.55322229 5.8473932 -12 5 C-10.37750059 4.16180842 -8.75191503 3.3295884 -7.125 2.5 C-6.22007812 2.0359375 -5.31515625 1.571875 -4.3828125 1.09375 C-2 0 -2 0 0 0 Z " fill="#2575C0" transform="translate(210,559)"/>
<path d="M0 0 C0.33 0.66 0.66 1.32 1 2 C1.66 2.309375 2.32 2.61875 3 2.9375 C5 4 5 4 6 7 C3.125 6.6875 3.125 6.6875 0 6 C-0.66 5.01 -1.32 4.02 -2 3 C-1.34 3 -0.68 3 0 3 C0 2.01 0 1.02 0 0 Z " fill="#287CD1" transform="translate(591,368)"/>
<path d="M0 0 C0 4.38968456 -2.12805101 5.76905739 -5 9 C-6.32 8.67 -7.64 8.34 -9 8 C-6.03 5.36 -3.06 2.72 0 0 Z " fill="#317AC1" transform="translate(590,490)"/>
<path d="M0 0 C0.66 0 1.32 0 2 0 C2 0.66 2 1.32 2 2 C2.66 2 3.32 2 4 2 C4.33 3.65 4.66 5.3 5 7 C3.02 7.99 3.02 7.99 1 9 C1.33 7.35 1.66 5.7 2 4 C1.01 3.67 0.02 3.34 -1 3 C-0.67 2.01 -0.34 1.02 0 0 Z " fill="#2372C3" transform="translate(359,486)"/>
<path d="M0 0 C3.94139078 1.66751148 6.7892812 4.22710649 10 7 C9.01 7.495 9.01 7.495 8 8 C5.875 7.0625 5.875 7.0625 4 6 C4 5.34 4 4.68 4 4 C3.01 4.33 2.02 4.66 1 5 C0.67 3.35 0.34 1.7 0 0 Z " fill="#E5F9FC" transform="translate(217,462)"/>
<path d="M0 0 C0.66 0.33 1.32 0.66 2 1 C1.67 2.98 1.34 4.96 1 7 C1.66 7 2.32 7 3 7 C3 8.98 3 10.96 3 13 C1.03782293 10.0567344 -0.58240698 7.24021262 -2 4 C-1 1 -1 1 0 0 Z " fill="#2B73BE" transform="translate(420,468)"/>
<path d="M0 0 C2 3.75 2 3.75 2 6 C1.01 6.495 1.01 6.495 0 7 C-1.0409066 8.64142963 -2.04504326 10.30712215 -3 12 C-4 10 -4 10 -3.22265625 7.6171875 C-2.83980469 6.71226562 -2.45695313 5.80734375 -2.0625 4.875 C-1.68222656 3.96492188 -1.30195313 3.05484375 -0.91015625 2.1171875 C-0.60980469 1.41851562 -0.30945313 0.71984375 0 0 Z " fill="#E6F8FD" transform="translate(252,469)"/>
<path d="M0 0 C0.99 0.33 1.98 0.66 3 1 C3 1.99 3 2.98 3 4 C3.66 4 4.32 4 5 4 C5 5.65 5 7.3 5 9 C5.99 9.33 6.98 9.66 8 10 C7.67 10.66 7.34 11.32 7 12 C6.34 12 5.68 12 5 12 C3.35 8.04 1.7 4.08 0 0 Z " fill="#2E77BE" transform="translate(412,456)"/>
<path d="M0 0 C0.66 0 1.32 0 2 0 C2.50757862 1.41396902 3.00574925 2.83131729 3.5 4.25 C3.7784375 5.03890625 4.056875 5.8278125 4.34375 6.640625 C5 9 5 9 5 13 C4.34 13 3.68 13 3 13 C2.49242138 11.58603098 1.99425075 10.16868271 1.5 8.75 C1.08234375 7.56664062 1.08234375 7.56664062 0.65625 6.359375 C0 4 0 4 0 0 Z " fill="#3076BF" transform="translate(342,433)"/>
<path d="M0 0 C0.66 0.33 1.32 0.66 2 1 C1.67 2.98 1.34 4.96 1 7 C1.66 7 2.32 7 3 7 C3 8.98 3 10.96 3 13 C1.03782293 10.0567344 -0.58240698 7.24021262 -2 4 C-1 1 -1 1 0 0 Z " fill="#2B73BE" transform="translate(388,388)"/>
<path d="M0 0 C0.99 0.33 1.98 0.66 3 1 C3 1.99 3 2.98 3 4 C3.66 4 4.32 4 5 4 C5 5.65 5 7.3 5 9 C5.99 9.33 6.98 9.66 8 10 C7.67 10.66 7.34 11.32 7 12 C6.34 12 5.68 12 5 12 C3.35 8.04 1.7 4.08 0 0 Z " fill="#2E77BE" transform="translate(380,376)"/>
<path d="M0 0 C2.475 0.99 2.475 0.99 5 2 C3.35 3.65 1.7 5.3 0 7 C0 6.34 0 5.68 0 5 C-0.66 4.67 -1.32 4.34 -2 4 C-1.34 2.68 -0.68 1.36 0 0 Z " fill="#1E6FC0" transform="translate(803,345)"/>
<path d="M0 0 C1.43861294 0.08746284 2.87597508 0.19565348 4.3125 0.3125 C5.11300781 0.37050781 5.91351562 0.42851562 6.73828125 0.48828125 C9.36272334 1.08206694 10.30820672 1.95780294 12 4 C10.7315625 3.7834375 10.7315625 3.7834375 9.4375 3.5625 C5.96406851 2.9941203 2.48554338 2.48797607 -1 2 C-0.67 1.34 -0.34 0.68 0 0 Z " fill="#3379BD" transform="translate(543,345)"/>
<path d="M0 0 C1.98 0 3.96 0 6 0 C4.02 2.31 2.04 4.62 0 7 C-1.04449911 3.86650268 -0.93423645 3.01031744 0 0 Z " fill="#226FBC" transform="translate(541,619)"/>
<path d="M0 0 C-1.49097658 3.7952131 -3.75700849 5.61042731 -7 8 C-6.44414399 4.1090079 -4.34122117 0 0 0 Z " fill="#206CB6" transform="translate(592,571)"/>
<path d="M0 0 C0.66 0 1.32 0 2 0 C1.27991594 4.60853797 -0.31295939 8.67237409 -2 13 C-3.18771723 9.57056481 -2.80226223 7.62215325 -1.5625 4.25 C-1.27503906 3.45078125 -0.98757813 2.6515625 -0.69140625 1.828125 C-0.46324219 1.22484375 -0.23507812 0.6215625 0 0 Z " fill="#DDF2FA" transform="translate(311,474)"/>
<path d="M0 0 C-2.31 2.31 -4.62 4.62 -7 7 C-7 4.33579484 -6.90837763 2.47739354 -6 0 C-3 -1 -3 -1 0 0 Z " fill="#246AB5" transform="translate(762,396)"/>
<path d="M0 0 C0.33 0.66 0.66 1.32 1 2 C1.99 2.33 2.98 2.66 4 3 C3.01 4.485 3.01 4.485 2 6 C1.34 6 0.68 6 0 6 C-0.33 6.66 -0.66 7.32 -1 8 C-1.625 5.125 -1.625 5.125 -2 2 C-1.34 1.34 -0.68 0.68 0 0 Z " fill="#1E6EBF" transform="translate(764,386)"/>
<path d="M0 0 C0.99 0.33 1.98 0.66 3 1 C-0.465 3.97 -0.465 3.97 -4 7 C-3.6875 4.625 -3.6875 4.625 -3 2 C-2.01 1.34 -1.02 0.68 0 0 Z " fill="#286DB3" transform="translate(575,587)"/>
<path d="M0 0 C4.455 1.98 4.455 1.98 9 4 C8.67 4.66 8.34 5.32 8 6 C5.69 5.34 3.38 4.68 1 4 C0.67 2.68 0.34 1.36 0 0 Z " fill="#2970B9" transform="translate(59,559)"/>
<path d="M0 0 C-0.33 1.32 -0.66 2.64 -1 4 C-2.98 4.33 -4.96 4.66 -7 5 C-6.625 3.0625 -6.625 3.0625 -6 1 C-4 0 -4 0 0 0 Z " fill="#1C71C7" transform="translate(202,344)"/>
<path d="M0 0 C1.38232443 1.62626404 2.71937515 3.2925002 4 5 C0.37 4.01 -3.26 3.02 -7 2 C-7 1.67 -7 1.34 -7 1 C-2.25 0 -2.25 0 0 0 Z " fill="#CDE9F7" transform="translate(80,564)"/>
<path d="M0 0 C2.97 0.495 2.97 0.495 6 1 C5.34 2.32 4.68 3.64 4 5 C3.34 5 2.68 5 2 5 C1.67 5.66 1.34 6.32 1 7 C0.67 4.69 0.34 2.38 0 0 Z " fill="#216DB9" transform="translate(602,554)"/>
<path d="M0 0 C0.33 0.99 0.66 1.98 1 3 C1.99 3.33 2.98 3.66 4 4 C2 5 2 5 0.0546875 4.44140625 C-0.66460937 4.15136719 -1.38390625 3.86132812 -2.125 3.5625 C-2.84945312 3.27503906 -3.57390625 2.98757813 -4.3203125 2.69140625 C-5.15175781 2.34916016 -5.15175781 2.34916016 -6 2 C-6 1.67 -6 1.34 -6 1 C-4.02 0.67 -2.04 0.34 0 0 Z " fill="#337AC3" transform="translate(95,514)"/>
<path d="M0 0 C3.63 0 7.26 0 11 0 C10.67 0.99 10.34 1.98 10 3 C6.7 2.34 3.4 1.68 0 1 C0 0.67 0 0.34 0 0 Z " fill="#3D81C4" transform="translate(316,497)"/>
<path d="M0 0 C0.99 0 1.98 0 3 0 C1.60667426 3.36720387 0.0210714 4.9859524 -3 7 C-3.33 5.35 -3.66 3.7 -4 2 C-2.68 2.33 -1.36 2.66 0 3 C0 2.01 0 1.02 0 0 Z " fill="#266EB9" transform="translate(668,489)"/>
<path d="M0 0 C0.33 0.66 0.66 1.32 1 2 C1.9590625 2.4640625 1.9590625 2.4640625 2.9375 2.9375 C5 4 5 4 7 7 C4.03 6.505 4.03 6.505 1 6 C1 5.34 1 4.68 1 4 C0.34 4 -0.32 4 -1 4 C-0.67 2.68 -0.34 1.36 0 0 Z " fill="#2671BC" transform="translate(75,456)"/>
<path d="M0 0 C2.76223278 2.76223278 2.57856291 5.20706617 3 9 C0.525 8.01 0.525 8.01 -2 7 C-1.34 4.69 -0.68 2.38 0 0 Z " fill="#3073B4" transform="translate(335,411)"/>
<path d="M0 0 C2.97 0.495 2.97 0.495 6 1 C4.35 2.65 2.7 4.3 1 6 C0.67 4.02 0.34 2.04 0 0 Z " fill="#216FBE" transform="translate(842,304)"/>
<path d="M0 0 C2.125 0.375 2.125 0.375 4 1 C2.35 2.65 0.7 4.3 -1 6 C-1.625 4.125 -1.625 4.125 -2 2 C-1.34 1.34 -0.68 0.68 0 0 Z " fill="#1F6DC1" transform="translate(657,499)"/>
<path d="M0 0 C0 0.66 0 1.32 0 2 C-3.72965139 4.03435531 -5.66905042 5 -10 5 C-10 4.34 -10 3.68 -10 3 C-8.70990357 2.49596232 -7.41786211 1.99690074 -6.125 1.5 C-5.04605469 1.08234375 -5.04605469 1.08234375 -3.9453125 0.65625 C-2 0 -2 0 0 0 Z " fill="#E1F2FB" transform="translate(540,457)"/>
<path d="M0 0 C1.65 0 3.3 0 5 0 C3.71937515 1.7074998 2.38232443 3.37373596 1 5 C0.34 5 -0.32 5 -1 5 C-0.67 3.35 -0.34 1.7 0 0 Z " fill="#2171BD" transform="translate(826,323)"/>
<path d="M0 0 C1.32 0.33 2.64 0.66 4 1 C2.35 2.98 0.7 4.96 -1 7 C-1.625 5.1875 -1.625 5.1875 -2 3 C-1.34 2.01 -0.68 1.02 0 0 Z " fill="#216EB6" transform="translate(855,293)"/>
<path d="M0 0 C1.32 0.66 2.64 1.32 4 2 C2.35 3.32 0.7 4.64 -1 6 C-1.625 4.125 -1.625 4.125 -2 2 C-1.34 1.34 -0.68 0.68 0 0 Z " fill="#2471BF" transform="translate(594,565)"/>
<path d="M0 0 C-0.99 0.33 -1.98 0.66 -3 1 C-3.33 1.99 -3.66 2.98 -4 4 C-5.65 3.67 -7.3 3.34 -9 3 C-8 1 -8 1 -5.0625 -0.1875 C-2 -1 -2 -1 0 0 Z " fill="#3C81C5" transform="translate(375,544)"/>
<path d="M0 0 C4.42857143 5.14285714 4.42857143 5.14285714 5 9 C2.5 7.875 2.5 7.875 0 6 C-0.3125 2.8125 -0.3125 2.8125 0 0 Z " fill="#3079C1" transform="translate(65,442)"/>
<path d="M0 0 C1.67542976 0.28604898 3.34385343 0.61781233 5 1 C3.69593116 3.01920337 2.36176581 5.01924973 1 7 C0.67 7 0.34 7 0 7 C-0.38133299 5.0085944 -0.71325582 3.00720923 -1 1 C-0.67 0.67 -0.34 0.34 0 0 Z " fill="#206CB9" transform="translate(740,411)"/>
<path d="M0 0 C1.32 0.66 2.64 1.32 4 2 C4 2.99 4 3.98 4 5 C2.35 5 0.7 5 -1 5 C-0.67 3.35 -0.34 1.7 0 0 Z " fill="#327DC7" transform="translate(539,405)"/>
<path d="M0 0 C2.64 0 5.28 0 8 0 C8 0.66 8 1.32 8 2 C5.36 2.33 2.72 2.66 0 3 C0 2.01 0 1.02 0 0 Z " fill="#2D79C0" transform="translate(104,347)"/>
<path d="M0 0 C1.32 0.33 2.64 0.66 4 1 C1.03 3.475 1.03 3.475 -2 6 C-2 3 -2 3 0 0 Z " fill="#1F6CB9" transform="translate(812,338)"/>
<path d="M0 0 C2.64 0.33 5.28 0.66 8 1 C5 3 5 3 1 3 C0.67 2.01 0.34 1.02 0 0 Z " fill="#2471BE" transform="translate(298,545)"/>
<path d="M0 0 C1.2077558 3.62326739 0.54311128 4.64146369 -1 8 C-1.99 8 -2.98 8 -4 8 C-2.68 5.36 -1.36 2.72 0 0 Z " fill="#377CC0" transform="translate(603,471)"/>
<path d="M0 0 C0.66 0.66 1.32 1.32 2 2 C1.54545455 7.45454545 1.54545455 7.45454545 -1 10 C-1.02689216 8.52093108 -1.04634621 7.04172517 -1.0625 5.5625 C-1.07410156 4.73878906 -1.08570313 3.91507812 -1.09765625 3.06640625 C-1 1 -1 1 0 0 Z " fill="#3C80C4" transform="translate(253,459)"/>
<path d="M0 0 C1 3 1 3 0 6 C-0.99 6 -1.98 6 -3 6 C-3.33 4.68 -3.66 3.36 -4 2 C-2.68 1.34 -1.36 0.68 0 0 Z " fill="#247ED4" transform="translate(613,454)"/>
<path d="M0 0 C0.33 0 0.66 0 1 0 C1.08090971 1.62418745 1.13914995 3.24951745 1.1875 4.875 C1.22230469 5.77992188 1.25710938 6.68484375 1.29296875 7.6171875 C1.19628906 8.40351563 1.09960938 9.18984375 1 10 C0.01 10.66 -0.98 11.32 -2 12 C-1.34 8.04 -0.68 4.08 0 0 Z " fill="#2871B7" transform="translate(612,445)"/>
<path d="M0 0 C-2.97 2.475 -2.97 2.475 -6 5 C-6 3.35 -6 1.7 -6 0 C-2.25 -1.125 -2.25 -1.125 0 0 Z " fill="#266DB5" transform="translate(786,371)"/>
<path d="M0 0 C2.475 0.495 2.475 0.495 5 1 C3.515 3.475 3.515 3.475 2 6 C0 3 0 3 0 0 Z " fill="#2E79CB" transform="translate(69,368)"/>
</svg>
