<svg width="64" height="39" viewBox="0 0 64 39" fill="none" xmlns="http://www.w3.org/2000/svg">
<path d="M18.0404 14.165C18.0404 14.953 18.1204 15.593 18.2724 16.065C18.4404 16.533 18.6564 17.045 18.9524 17.601C19.0469 17.7479 19.0982 17.9184 19.1004 18.093C19.1004 18.305 18.9724 18.521 18.7004 18.733L17.3564 19.629C17.1951 19.7455 17.0032 19.8123 16.8044 19.821C16.5884 19.821 16.3764 19.717 16.1644 19.525C15.8769 19.2157 15.6198 18.8795 15.3964 18.521C15.1598 18.1106 14.941 17.6902 14.7404 17.261C13.0764 19.225 10.9924 20.209 8.48044 20.209C6.69244 20.209 5.26444 19.693 4.22444 18.669C3.18044 17.645 2.64844 16.277 2.64844 14.569C2.64844 12.753 3.28844 11.281 4.58444 10.169C5.88444 9.05704 7.60844 8.50504 9.80044 8.50504C10.5204 8.50504 11.2684 8.56904 12.0564 8.67304C12.8444 8.78104 13.6564 8.95304 14.5044 9.14504V7.58504C14.5044 5.96104 14.1644 4.82904 13.5044 4.16904C12.8244 3.50504 11.6724 3.18504 10.0324 3.18504C9.28844 3.18504 8.52444 3.27304 7.73644 3.46504C6.95353 3.65137 6.18491 3.89332 5.43644 4.18904C5.19479 4.29845 4.94626 4.39198 4.69244 4.46904C4.58245 4.50538 4.46811 4.5269 4.35244 4.53304C4.05244 4.53304 3.90444 4.31704 3.90444 3.86904V2.82104C3.90444 2.48104 3.94444 2.22104 4.05244 2.07704C4.21363 1.88078 4.41932 1.72582 4.65244 1.62504C5.39244 1.24104 6.28844 0.921041 7.33244 0.665041C8.37244 0.385041 9.48044 0.261042 10.6524 0.261042C13.1844 0.261042 15.0364 0.837042 16.2284 1.98904C17.4004 3.14104 17.9964 4.89304 17.9964 7.24504V14.165H18.0364H18.0404ZM9.39644 17.409C10.0964 17.409 10.8204 17.281 11.5884 17.025C12.3564 16.769 13.0364 16.297 13.6084 15.657C13.9514 15.2641 14.1992 14.7973 14.3324 14.293C14.4604 13.777 14.5484 13.161 14.5484 12.433V11.537C13.9024 11.3804 13.248 11.2602 12.5884 11.177C11.9252 11.0912 11.2572 11.0472 10.5884 11.045C9.16044 11.045 8.12044 11.325 7.41644 11.901C6.71244 12.477 6.37644 13.289 6.37644 14.357C6.37644 15.357 6.62844 16.105 7.16044 16.621C7.67244 17.153 8.41644 17.409 9.39644 17.409ZM26.4884 19.717C26.1044 19.717 25.8484 19.653 25.6804 19.501C25.5084 19.373 25.3604 19.077 25.2324 18.669L20.2324 2.16104C20.1352 1.8842 20.0707 1.5969 20.0404 1.30504C20.0404 0.965042 20.2084 0.773043 20.5484 0.773043H22.6364C23.0364 0.773043 23.3164 0.837043 23.4644 0.985043C23.6364 1.11304 23.7644 1.41304 23.8924 1.81704L27.4684 15.957L30.7884 1.81704C30.8924 1.39304 31.0204 1.11304 31.1924 0.985043C31.448 0.828635 31.7454 0.754621 32.0444 0.773043H33.7484C34.1484 0.773043 34.4284 0.837043 34.5964 0.985043C34.7684 1.11304 34.9164 1.41304 35.0044 1.81704L38.3644 16.129L42.0444 1.81704C42.1129 1.5074 42.2603 1.22076 42.4724 0.985043C42.7204 0.82822 43.0117 0.754002 43.3044 0.773043H45.2844C45.6244 0.773043 45.8164 0.945042 45.8164 1.30504C45.8164 1.41304 45.7924 1.52104 45.7764 1.64904C45.7419 1.83059 45.691 2.00864 45.6244 2.18104L40.4924 18.689C40.3684 19.117 40.2164 19.397 40.0484 19.525C39.8069 19.6795 39.5227 19.7537 39.2364 19.737H37.4084C37.0044 19.737 36.7284 19.673 36.5564 19.525C36.3844 19.373 36.2364 19.097 36.1524 18.669L32.8524 4.89704L29.5724 18.653C29.4684 19.081 29.3404 19.357 29.1724 19.505C29.0004 19.657 28.7004 19.721 28.3204 19.721H26.4884V19.717ZM53.8404 20.293C52.7358 20.2945 51.6349 20.1656 50.5604 19.909C49.4964 19.653 48.6684 19.373 48.1124 19.053C47.7724 18.861 47.5404 18.649 47.4524 18.453C47.3713 18.2648 47.3292 18.062 47.3284 17.857V16.769C47.3284 16.321 47.4964 16.105 47.8164 16.105C47.9471 16.1053 48.0768 16.127 48.2004 16.169C48.3284 16.213 48.5204 16.297 48.7324 16.385C49.4524 16.705 50.2444 16.961 51.0724 17.133C51.9244 17.301 52.7524 17.389 53.6044 17.389C54.9484 17.389 55.9884 17.153 56.7124 16.685C57.0602 16.4745 57.346 16.1755 57.5407 15.8186C57.7353 15.4616 57.8318 15.0595 57.8204 14.653C57.8276 14.3786 57.7804 14.1055 57.6816 13.8495C57.5827 13.5934 57.4342 13.3594 57.2444 13.161C56.8644 12.753 56.1404 12.389 55.0964 12.049L52.0084 11.089C50.4564 10.597 49.3044 9.86904 48.6044 8.90904C47.9192 8.02201 47.5452 6.93393 47.5404 5.81304C47.5404 4.91704 47.7324 4.12504 48.1124 3.44104C48.4964 2.76104 49.0084 2.16104 49.6484 1.68904C50.2884 1.20104 51.0084 0.837041 51.8604 0.581041C52.7124 0.325041 53.6044 0.217041 54.5404 0.217041C55.0124 0.217041 55.5004 0.237043 55.9684 0.301043C56.4564 0.365043 56.9044 0.453042 57.3524 0.541042C57.7764 0.645042 58.1844 0.749043 58.5644 0.881043C58.9484 1.00904 59.2444 1.13704 59.4604 1.26504C59.7115 1.39129 59.9304 1.57325 60.1004 1.79704C60.2374 2.0053 60.3033 2.25224 60.2884 2.50104V3.50504C60.2884 3.95304 60.1204 4.18904 59.8004 4.18904C59.5171 4.15669 59.2427 4.06976 58.9924 3.93304C57.7061 3.36286 56.3113 3.07898 54.9044 3.10104C53.6924 3.10104 52.7324 3.29304 52.0724 3.70104C51.4124 4.10104 51.0724 4.72504 51.0724 5.60104C51.0724 6.19704 51.2844 6.70904 51.7124 7.11704C52.1364 7.52104 52.9244 7.92504 54.0524 8.28904L57.0764 9.24904C58.6084 9.74104 59.7164 10.425 60.3764 11.301C61.0364 12.177 61.3524 13.181 61.3524 14.293C61.3524 15.213 61.1644 16.041 60.8004 16.769C60.4237 17.4996 59.8944 18.1407 59.2484 18.649C58.5884 19.181 57.8004 19.569 56.8844 19.845C55.9244 20.145 54.9244 20.293 53.8404 20.293Z" fill="white"/>
<path fill-rule="evenodd" clip-rule="evenodd" d="M57.8597 30.6689C50.8597 35.8569 40.6837 38.6129 31.9357 38.6129C19.6757 38.6129 8.62772 34.0649 0.283721 26.5049C-0.376279 25.9049 0.219721 25.0929 1.00372 25.5649C10.0317 30.8169 21.1637 34.0009 32.6837 34.0009C40.4477 34.0009 48.9837 32.3769 56.8397 29.0449C58.0117 28.5129 59.0117 29.8129 57.8597 30.6689Z" fill="white"/>
<path fill-rule="evenodd" clip-rule="evenodd" d="M60.7755 27.3369C59.8835 26.1889 54.8595 26.7849 52.5835 27.0609C51.9035 27.1489 51.7955 26.5489 52.4115 26.1009C56.4115 23.2809 62.9915 24.0929 63.7555 25.0329C64.5235 25.9929 63.5435 32.5929 59.7955 35.7529C59.2235 36.2449 58.6715 35.9929 58.9275 35.3529C59.7755 33.2329 61.6715 28.4729 60.7755 27.3409V27.3369Z" fill="white"/>
</svg>
