<svg width="58" height="45" viewBox="0 0 58 45" fill="none" xmlns="http://www.w3.org/2000/svg">
<path d="M26.8796 42.065L40.2716 39.697L40.3956 39.669L33.5076 31.473C31.1977 28.7396 28.9003 25.9956 26.6156 23.241C26.6156 23.201 33.7316 3.60499 33.7716 3.53699C37.7087 10.2771 41.6207 17.0318 45.5076 23.801L57.3076 44.261L57.3996 44.417L13.6076 44.413L26.8796 42.065ZM0.599609 39.569C0.599609 39.557 3.84361 33.921 7.81161 27.045L15.0276 14.537L23.4356 7.48099C28.0596 3.60499 31.8556 0.416992 31.8676 0.416992C31.8378 0.535334 31.7935 0.649535 31.7356 0.756992L22.5996 20.341L13.6396 39.573L7.11961 39.581C3.53161 39.585 0.599609 39.581 0.599609 39.569Z" fill="white"/>
</svg>
