<svg width="60" height="49" viewBox="0 0 60 49" fill="none" xmlns="http://www.w3.org/2000/svg">
<path fill-rule="evenodd" clip-rule="evenodd" d="M45.4809 6.277L45.4729 6.265C42.4596 3.63792 38.8317 1.81431 34.9257 0.963312C31.0196 0.112316 26.9619 0.261491 23.1289 1.397C19.3054 2.55212 15.8384 4.66033 13.0535 7.52354C10.2687 10.3867 8.25749 13.9109 7.2089 17.765C5.03643 19.2794 3.25214 21.2853 2.0012 23.6194C0.750254 25.9536 0.0679883 28.55 0.00990682 31.1976C-0.0481747 33.8452 0.519568 36.4691 1.66695 38.8558C2.81433 41.2426 4.50893 43.3248 6.6129 44.933C9.55491 47.1738 13.1467 48.3954 16.8449 48.413H42.9249C46.554 48.4472 50.0982 47.3146 53.035 45.1822C55.9718 43.0498 58.1459 40.0304 59.2369 36.569C60.3138 33.1112 60.2445 29.3979 59.0393 25.9827C57.8341 22.5674 55.5575 19.6331 52.5489 17.617C51.3484 13.229 48.8917 9.2874 45.4809 6.277ZM14.1689 37.397C15.0089 37.777 15.9209 38.037 16.8489 38.037L42.9209 38.045C46.5209 38.045 49.4409 35.145 49.4409 31.569C49.4409 27.993 46.5209 25.093 42.9209 25.093V23.801C42.957 21.846 42.5484 19.9083 41.7259 18.1343C40.9034 16.3604 39.6884 14.7966 38.1729 13.561H38.1649C32.8089 9.249 24.9449 9.913 20.3049 14.977L20.2489 15.037C24.2329 15.837 27.8369 18.041 30.3489 21.309L22.7929 28.821C22.2103 27.5384 21.2279 26.479 19.9928 25.8014C18.7577 25.1238 17.3364 24.8645 15.9416 25.0622C14.5468 25.2599 13.2536 25.904 12.2555 26.8982C11.2574 27.8923 10.6081 29.183 10.4049 30.577C10.2073 31.9682 10.4682 33.3859 11.148 34.6157C11.8279 35.8455 12.8897 36.8204 14.1729 37.393L14.1689 37.397Z" fill="white"/>
</svg>
